<svg version="1" xmlns="http://www.w3.org/2000/svg" width="373.333" height="373.333" viewBox="0 0 280.000000 280.000000"><path d="M91 24.1c-9.7 1.3-38.5 7-39.8 7.8-.8.5.1 3.6 3.2 10.7 8.2 18.6 13.4 39 17.3 67.4 2.6 19.3 2.6 74.4 0 94.1-2.3 17.3-5.9 34.7-9.8 47.3-1.6 5.4-2.9 10-2.7 10.2.2.2 7.1-.3 15.4-1.1 8.2-.8 23.1-1.8 33.2-2.2 10-.3 18.4-.9 18.6-1.2.1-.3-.3-6.7-1-14.1-2.1-20.9-2.8-62-1.5-81.2C127.4 110.7 134.8 85 146 85c5.3 0 5.5 1.2 5.4 27.4-.2 42.6-6.8 101.4-15.3 135.8-1.6 6.2-2.7 11.5-2.5 11.6.1.2 10.1-.1 22.2-.7s29.5-1.1 38.7-1.1c15.5 0 16.7-.1 16-1.8-13-31-14.8-67.7-6.5-134.2 6-48 6.7-64.5 3.1-76.1-3.8-12.2-9.8-17.9-20.8-19.8-18.2-3.3-36.5 6.3-53.6 28.3-4.2 5.5-6.8 8.1-6.4 6.6.4-1.4 1.2-6.2 1.8-10.7 2.1-15.7-1.8-24-12.1-26.2-5.9-1.3-15.6-1.2-25 0z"/></svg>